<svg width="736" height="89" viewBox="0 0 736 89" fill="none" xmlns="http://www.w3.org/2000/svg">
<path d="M26.9971 7.71351L31.2045 0L29.802 5.60982H32.6069L26.2959 18.9332L29.802 7.71351H26.9971Z" fill="#95C24D"/>
<path d="M102.73 7.71351L106.937 0L105.535 5.60982H108.34L102.029 18.9332L105.535 7.71351H102.73Z" fill="#95C24D"/>
<path d="M64.8636 7.71351L69.0709 0L67.6685 5.60982H70.4734L64.1624 18.9332L67.6685 7.71351H64.8636Z" fill="#95C24D"/>
<path d="M140.596 7.71351L144.804 0L143.401 5.60982H146.206L139.895 18.9332L143.401 7.71351H140.596Z" fill="#95C24D"/>
<path d="M45.9304 7.71351L50.1378 0L48.7353 5.60982H51.5402L45.2292 18.9332L48.7353 7.71351H45.9304Z" fill="#95C24D"/>
<path d="M121.663 7.71351L125.87 0L124.468 5.60982H127.273L120.962 18.9332L124.468 7.71351H121.663Z" fill="#95C24D"/>
<path d="M83.7967 7.71351L88.0041 0L86.6016 5.60982H89.4065L83.0955 18.9332L86.6016 7.71351H83.7967Z" fill="#95C24D"/>
<path d="M159.529 7.71351L163.737 0L162.334 5.60982H165.139L158.828 18.9332L162.334 7.71351H159.529Z" fill="#95C24D"/>
<path d="M178.462 7.71351L182.67 0L181.267 5.60982H184.072L177.761 18.9332L181.267 7.71351H178.462Z" fill="#95C24D"/>
<path d="M254.195 7.71351L258.402 0L257 5.60982H259.805L253.494 18.9332L257 7.71351H254.195Z" fill="#95C24D"/>
<path d="M216.329 7.71351L220.536 0L219.134 5.60982H221.939L215.628 18.9332L219.134 7.71351H216.329Z" fill="#95C24D"/>
<path d="M292.061 7.71351L296.269 0L294.866 5.60982H297.671L291.36 18.9332L294.866 7.71351H292.061Z" fill="#95C24D"/>
<path d="M197.396 7.71351L201.603 0L200.201 5.60982H203.005L196.694 18.9332L200.201 7.71351H197.396Z" fill="#95C24D"/>
<path d="M273.128 7.71351L277.336 0L275.933 5.60982H278.738L272.427 18.9332L275.933 7.71351H273.128Z" fill="#95C24D"/>
<path d="M235.262 7.71351L239.469 0L238.067 5.60982H240.872L234.561 18.9332L238.067 7.71351H235.262Z" fill="#95C24D"/>
<path d="M310.995 7.71351L315.202 0L313.799 5.60982H316.604L310.293 18.9332L313.799 7.71351H310.995Z" fill="#95C24D"/>
<path d="M329.928 7.71351L334.135 0L332.733 5.60982H335.537L329.226 18.9332L332.733 7.71351H329.928Z" fill="#95C24D"/>
<path d="M405.66 7.71351L409.868 0L408.465 5.60982H411.27L404.959 18.9332L408.465 7.71351H405.66Z" fill="#95C24D"/>
<path d="M367.794 7.71351L372.001 0L370.599 5.60982H373.404L367.093 18.9332L370.599 7.71351H367.794Z" fill="#95C24D"/>
<path d="M443.526 7.71351L447.734 0L446.331 5.60982H449.136L442.825 18.9332L446.331 7.71351H443.526Z" fill="#95C24D"/>
<path d="M348.861 7.71351L353.068 0L351.666 5.60982H354.471L348.159 18.9332L351.666 7.71351H348.861Z" fill="#95C24D"/>
<path d="M424.593 7.71351L428.801 0L427.398 5.60982H430.203L423.892 18.9332L427.398 7.71351H424.593Z" fill="#95C24D"/>
<path d="M386.727 7.71351L390.934 0L389.532 5.60982H392.337L386.026 18.9332L389.532 7.71351H386.727Z" fill="#95C24D"/>
<path d="M462.46 7.71351L466.667 0L465.265 5.60982H468.069L461.758 18.9332L465.265 7.71351H462.46Z" fill="#95C24D"/>
<path d="M481.393 7.71351L485.6 0L484.198 5.60982H487.003L480.692 18.9332L484.198 7.71351H481.393Z" fill="#95C24D"/>
<path d="M557.125 7.71351L561.333 0L559.93 5.60982H562.735L556.424 18.9332L559.93 7.71351H557.125Z" fill="#95C24D"/>
<path d="M519.259 7.71351L523.466 0L522.064 5.60982H524.869L518.558 18.9332L522.064 7.71351H519.259Z" fill="#95C24D"/>
<path d="M594.991 7.71351L599.199 0L597.796 5.60982H600.601L594.29 18.9332L597.796 7.71351H594.991Z" fill="#95C24D"/>
<path d="M500.326 7.71351L504.533 0L503.131 5.60982H505.936L499.624 18.9332L503.131 7.71351H500.326Z" fill="#95C24D"/>
<path d="M576.058 7.71351L580.266 0L578.863 5.60982H581.668L575.357 18.9332L578.863 7.71351H576.058Z" fill="#95C24D"/>
<path d="M538.192 7.71351L542.399 0L540.997 5.60982H543.802L537.491 18.9332L540.997 7.71351H538.192Z" fill="#95C24D"/>
<path d="M613.925 7.71351L618.132 0L616.73 5.60982H619.534L613.223 18.9332L616.73 7.71351H613.925Z" fill="#95C24D"/>
<path d="M632.858 7.71351L637.065 0L635.663 5.60982H638.468L632.157 18.9332L635.663 7.71351H632.858Z" fill="#95C24D"/>
<path d="M708.591 7.71351L712.798 0L711.396 5.60982H714.201L707.89 18.9332L711.396 7.71351H708.591Z" fill="#95C24D"/>
<path d="M670.725 7.71351L674.932 0L673.53 5.60982H676.334L670.023 18.9332L673.53 7.71351H670.725Z" fill="#95C24D"/>
<path d="M651.791 7.71351L655.999 0L654.596 5.60982H657.401L651.09 18.9332L654.596 7.71351H651.791Z" fill="#95C24D"/>
<path d="M727.524 7.71351L731.731 0L730.329 5.60982H733.134L726.823 18.9332L730.329 7.71351H727.524Z" fill="#95C24D"/>
<path d="M689.658 7.71351L693.865 0L692.462 5.60982H695.267L688.956 18.9332L692.462 7.71351H689.658Z" fill="#95C24D"/>
<path d="M11.2195 30.854L15.4269 23.1405L14.0244 28.7503H16.8293L10.5183 42.0737L14.0244 30.854H11.2195Z" fill="#95C24D"/>
<path d="M86.952 30.854L91.1593 23.1405L89.7569 28.7503H92.5618L86.2507 42.0737L89.7569 30.854H86.952Z" fill="#95C24D"/>
<path d="M49.0857 30.854L53.2931 23.1405L51.8906 28.7503H54.6955L48.3845 42.0737L51.8906 30.854H49.0857Z" fill="#95C24D"/>
<path d="M124.818 30.854L129.026 23.1405L127.623 28.7503H130.428L124.117 42.0737L127.623 30.854H124.818Z" fill="#95C24D"/>
<path d="M30.1525 30.854L34.3599 23.1405L32.9574 28.7503H35.7623L29.4513 42.0737L32.9574 30.854H30.1525Z" fill="#95C24D"/>
<path d="M105.885 30.854L110.092 23.1405L108.69 28.7503H111.495L105.184 42.0737L108.69 30.854H105.885Z" fill="#95C24D"/>
<path d="M68.0188 30.854L72.2262 23.1405L70.8237 28.7503H73.6286L67.3176 42.0737L70.8237 30.854H68.0188Z" fill="#95C24D"/>
<path d="M143.751 30.854L147.959 23.1405L146.556 28.7503H149.361L143.05 42.0737L146.556 30.854H143.751Z" fill="#95C24D"/>
<path d="M162.685 30.854L166.892 23.1405L165.489 28.7503H168.294L161.983 42.0737L165.489 30.854H162.685Z" fill="#95C24D"/>
<path d="M238.417 30.854L242.625 23.1405L241.222 28.7503H244.027L237.716 42.0737L241.222 30.854H238.417Z" fill="#95C24D"/>
<path d="M200.551 30.854L204.758 23.1405L203.356 28.7503H206.161L199.85 42.0737L203.356 30.854H200.551Z" fill="#95C24D"/>
<path d="M276.284 30.854L280.491 23.1405L279.089 28.7503H281.894L275.582 42.0737L279.089 30.854H276.284Z" fill="#95C24D"/>
<path d="M181.618 30.854L185.825 23.1405L184.423 28.7503H187.228L180.917 42.0737L184.423 30.854H181.618Z" fill="#95C24D"/>
<path d="M257.351 30.854L261.558 23.1405L260.155 28.7503H262.96L256.649 42.0737L260.155 30.854H257.351Z" fill="#95C24D"/>
<path d="M219.484 30.854L223.692 23.1405L222.289 28.7503H225.094L218.783 42.0737L222.289 30.854H219.484Z" fill="#95C24D"/>
<path d="M295.217 30.854L299.424 23.1405L298.022 28.7503H300.827L294.516 42.0737L298.022 30.854H295.217Z" fill="#95C24D"/>
<path d="M314.15 30.854L318.357 23.1405L316.955 28.7503H319.76L313.449 42.0737L316.955 30.854H314.15Z" fill="#95C24D"/>
<path d="M389.883 30.854L394.09 23.1405L392.687 28.7503H395.492L389.181 42.0737L392.687 30.854H389.883Z" fill="#95C24D"/>
<path d="M352.016 30.854L356.224 23.1405L354.821 28.7503H357.626L351.315 42.0737L354.821 30.854H352.016Z" fill="#95C24D"/>
<path d="M427.749 30.854L431.956 23.1405L430.554 28.7503H433.359L427.048 42.0737L430.554 30.854H427.749Z" fill="#95C24D"/>
<path d="M333.083 30.854L337.29 23.1405L335.888 28.7503H338.693L332.382 42.0737L335.888 30.854H333.083Z" fill="#95C24D"/>
<path d="M408.816 30.854L413.023 23.1405L411.621 28.7503H414.426L408.115 42.0737L411.621 30.854H408.816Z" fill="#95C24D"/>
<path d="M370.949 30.854L375.157 23.1405L373.754 28.7503H376.559L370.248 42.0737L373.754 30.854H370.949Z" fill="#95C24D"/>
<path d="M446.682 30.854L450.889 23.1405L449.487 28.7503H452.292L445.981 42.0737L449.487 30.854H446.682Z" fill="#95C24D"/>
<path d="M465.615 30.854L469.823 23.1405L468.42 28.7503H471.225L464.914 42.0737L468.42 30.854H465.615Z" fill="#95C24D"/>
<path d="M541.348 30.854L545.555 23.1405L544.153 28.7503H546.958L540.647 42.0737L544.153 30.854H541.348Z" fill="#95C24D"/>
<path d="M503.481 30.854L507.689 23.1405L506.286 28.7503H509.091L502.78 42.0737L506.286 30.854H503.481Z" fill="#95C24D"/>
<path d="M579.214 30.854L583.421 23.1405L582.019 28.7503H584.824L578.513 42.0737L582.019 30.854H579.214Z" fill="#95C24D"/>
<path d="M484.548 30.854L488.756 23.1405L487.353 28.7503H490.158L483.847 42.0737L487.353 30.854H484.548Z" fill="#95C24D"/>
<path d="M560.281 30.854L564.488 23.1405L563.086 28.7503H565.891L559.58 42.0737L563.086 30.854H560.281Z" fill="#95C24D"/>
<path d="M522.415 30.854L526.622 23.1405L525.22 28.7503H528.024L521.713 42.0737L525.22 30.854H522.415Z" fill="#95C24D"/>
<path d="M598.147 30.854L602.355 23.1405L600.952 28.7503H603.757L597.446 42.0737L600.952 30.854H598.147Z" fill="#95C24D"/>
<path d="M617.08 30.854L621.288 23.1405L619.885 28.7503H622.69L616.379 42.0737L619.885 30.854H617.08Z" fill="#95C24D"/>
<path d="M692.813 30.854L697.02 23.1405L695.618 28.7503H698.423L692.112 42.0737L695.618 30.854H692.813Z" fill="#95C24D"/>
<path d="M654.947 30.854L659.154 23.1405L657.751 28.7503H660.556L654.245 42.0737L657.751 30.854H654.947Z" fill="#95C24D"/>
<path d="M730.679 30.854L734.887 23.1405L733.484 28.7503H736.289L729.978 42.0737L733.484 30.854H730.679Z" fill="#95C24D"/>
<path d="M636.013 30.854L640.221 23.1405L638.818 28.7503H641.623L635.312 42.0737L638.818 30.854H636.013Z" fill="#95C24D"/>
<path d="M711.746 30.854L715.953 23.1405L714.551 28.7503H717.356L711.045 42.0737L714.551 30.854H711.746Z" fill="#95C24D"/>
<path d="M673.88 30.854L678.087 23.1405L676.685 28.7503H679.49L673.178 42.0737L676.685 30.854H673.88Z" fill="#95C24D"/>
<path d="M16.4788 53.9945L20.6862 46.281L19.2838 51.8908H22.0887L15.7776 65.2142L19.2838 53.9945H16.4788Z" fill="#95C24D"/>
<path d="M92.2112 53.9945L96.4186 46.281L95.0161 51.8908H97.8211L91.51 65.2142L95.0161 53.9945H92.2112Z" fill="#95C24D"/>
<path d="M54.3449 53.9945L58.5523 46.281L57.1498 51.8908H59.9548L53.6437 65.2142L57.1498 53.9945H54.3449Z" fill="#95C24D"/>
<path d="M130.078 53.9945L134.285 46.281L132.882 51.8908H135.687L129.376 65.2142L132.882 53.9945H130.078Z" fill="#95C24D"/>
<path d="M35.4118 53.9945L39.6192 46.281L38.2167 51.8908H41.0216L34.7106 65.2142L38.2167 53.9945H35.4118Z" fill="#95C24D"/>
<path d="M111.144 53.9945L115.352 46.281L113.949 51.8908H116.754L110.443 65.2142L113.949 53.9945H111.144Z" fill="#95C24D"/>
<path d="M73.2781 53.9945L77.4855 46.281L76.083 51.8908H78.8879L72.5769 65.2142L76.083 53.9945H73.2781Z" fill="#95C24D"/>
<path d="M149.011 53.9945L153.218 46.281L151.816 51.8908H154.621L148.309 65.2142L151.816 53.9945H149.011Z" fill="#95C24D"/>
<path d="M167.944 53.9945L172.151 46.281L170.749 51.8908H173.554L167.243 65.2142L170.749 53.9945H167.944Z" fill="#95C24D"/>
<path d="M243.677 53.9945L247.884 46.281L246.482 51.8908H249.286L242.975 65.2142L246.482 53.9945H243.677Z" fill="#95C24D"/>
<path d="M205.81 53.9945L210.018 46.281L208.615 51.8908H211.42L205.109 65.2142L208.615 53.9945H205.81Z" fill="#95C24D"/>
<path d="M281.543 53.9945L285.75 46.281L284.348 51.8908H287.153L280.842 65.2142L284.348 53.9945H281.543Z" fill="#95C24D"/>
<path d="M186.877 53.9945L191.085 46.281L189.682 51.8908H192.487L186.176 65.2142L189.682 53.9945H186.877Z" fill="#95C24D"/>
<path d="M262.61 53.9945L266.817 46.281L265.415 51.8908H268.22L261.909 65.2142L265.415 53.9945H262.61Z" fill="#95C24D"/>
<path d="M224.743 53.9945L228.951 46.281L227.548 51.8908H230.353L224.042 65.2142L227.548 53.9945H224.743Z" fill="#95C24D"/>
<path d="M300.476 53.9945L304.683 46.281L303.281 51.8908H306.086L299.775 65.2142L303.281 53.9945H300.476Z" fill="#95C24D"/>
<path d="M319.409 53.9945L323.616 46.281L322.214 51.8908H325.019L318.708 65.2142L322.214 53.9945H319.409Z" fill="#95C24D"/>
<path d="M395.142 53.9945L399.349 46.281L397.947 51.8908H400.752L394.44 65.2142L397.947 53.9945H395.142Z" fill="#95C24D"/>
<path d="M357.275 53.9945L361.483 46.281L360.08 51.8908H362.885L356.574 65.2142L360.08 53.9945H357.275Z" fill="#95C24D"/>
<path d="M433.008 53.9945L437.215 46.281L435.813 51.8908H438.618L432.307 65.2142L435.813 53.9945H433.008Z" fill="#95C24D"/>
<path d="M338.342 53.9945L342.55 46.281L341.147 51.8908H343.952L337.641 65.2142L341.147 53.9945H338.342Z" fill="#95C24D"/>
<path d="M414.075 53.9945L418.282 46.281L416.88 51.8908H419.685L413.374 65.2142L416.88 53.9945H414.075Z" fill="#95C24D"/>
<path d="M376.209 53.9945L380.416 46.281L379.013 51.8908H381.818L375.507 65.2142L379.013 53.9945H376.209Z" fill="#95C24D"/>
<path d="M451.941 53.9945L456.149 46.281L454.746 51.8908H457.551L451.24 65.2142L454.746 53.9945H451.941Z" fill="#95C24D"/>
<path d="M470.874 53.9945L475.082 46.281L473.679 51.8908H476.484L470.173 65.2142L473.679 53.9945H470.874Z" fill="#95C24D"/>
<path d="M546.607 53.9945L550.814 46.281L549.412 51.8908H552.217L545.906 65.2142L549.412 53.9945H546.607Z" fill="#95C24D"/>
<path d="M508.741 53.9945L512.948 46.281L511.545 51.8908H514.35L508.039 65.2142L511.545 53.9945H508.741Z" fill="#95C24D"/>
<path d="M584.473 53.9945L588.681 46.281L587.278 51.8908H590.083L583.772 65.2142L587.278 53.9945H584.473Z" fill="#95C24D"/>
<path d="M489.807 53.9945L494.015 46.281L492.612 51.8908H495.417L489.106 65.2142L492.612 53.9945H489.807Z" fill="#95C24D"/>
<path d="M565.54 53.9945L569.747 46.281L568.345 51.8908H571.15L564.839 65.2142L568.345 53.9945H565.54Z" fill="#95C24D"/>
<path d="M527.674 53.9945L531.881 46.281L530.479 51.8908H533.284L526.972 65.2142L530.479 53.9945H527.674Z" fill="#95C24D"/>
<path d="M603.406 53.9945L607.613 46.281L606.211 51.8908H609.016L602.705 65.2142L606.211 53.9945H603.406Z" fill="#95C24D"/>
<path d="M622.34 53.9945L626.547 46.281L625.144 51.8908H627.949L621.638 65.2142L625.144 53.9945H622.34Z" fill="#95C24D"/>
<path d="M698.072 53.9945L702.279 46.281L700.877 51.8908H703.682L697.371 65.2142L700.877 53.9945H698.072Z" fill="#95C24D"/>
<path d="M660.206 53.9945L664.413 46.281L663.011 51.8908H665.815L659.504 65.2142L663.011 53.9945H660.206Z" fill="#95C24D"/>
<path d="M735.938 53.9945L740.146 46.281L738.743 51.8908H741.548L735.237 65.2142L738.743 53.9945H735.938Z" fill="#95C24D"/>
<path d="M641.272 53.9945L645.48 46.281L644.077 51.8908H646.882L640.571 65.2142L644.077 53.9945H641.272Z" fill="#95C24D"/>
<path d="M717.005 53.9945L721.212 46.281L719.81 51.8908H722.615L716.304 65.2142L719.81 53.9945H717.005Z" fill="#95C24D"/>
<path d="M679.139 53.9945L683.346 46.281L681.944 51.8908H684.749L678.438 65.2142L681.944 53.9945H679.139Z" fill="#95C24D"/>
<path d="M0.701228 77.135L4.9086 69.4215L3.50614 75.0313H6.31105L0 88.3547L3.50614 77.135H0.701228Z" fill="#95C24D"/>
<path d="M76.4338 77.135L80.6412 69.4215L79.2387 75.0313H82.0437L75.7326 88.3547L79.2387 77.135H76.4338Z" fill="#95C24D"/>
<path d="M38.5675 77.135L42.7749 69.4215L41.3724 75.0313H44.1774L37.8663 88.3547L41.3724 77.135H38.5675Z" fill="#95C24D"/>
<path d="M114.3 77.135L118.508 69.4215L117.105 75.0313H119.91L113.599 88.3547L117.105 77.135H114.3Z" fill="#95C24D"/>
<path d="M19.6344 77.135L23.8417 69.4215L22.4393 75.0313H25.2442L18.9332 88.3547L22.4393 77.135H19.6344Z" fill="#95C24D"/>
<path d="M95.367 77.135L99.5744 69.4215L98.1719 75.0313H100.977L94.6658 88.3547L98.1719 77.135H95.367Z" fill="#95C24D"/>
<path d="M57.5007 77.135L61.708 69.4215L60.3056 75.0313H63.1105L56.7994 88.3547L60.3056 77.135H57.5007Z" fill="#95C24D"/>
<path d="M133.233 77.135L137.441 69.4215L136.038 75.0313H138.843L132.532 88.3547L136.038 77.135H133.233Z" fill="#95C24D"/>
<path d="M152.166 77.135L156.374 69.4215L154.971 75.0313H157.776L151.465 88.3547L154.971 77.135H152.166Z" fill="#95C24D"/>
<path d="M227.899 77.135L232.106 69.4215L230.704 75.0313H233.509L227.198 88.3547L230.704 77.135H227.899Z" fill="#95C24D"/>
<path d="M190.033 77.135L194.24 69.4215L192.838 75.0313H195.642L189.331 88.3547L192.838 77.135H190.033Z" fill="#95C24D"/>
<path d="M265.765 77.135L269.973 69.4215L268.57 75.0313H271.375L265.064 88.3547L268.57 77.135H265.765Z" fill="#95C24D"/>
<path d="M171.099 77.135L175.307 69.4215L173.904 75.0313H176.709L170.398 88.3547L173.904 77.135H171.099Z" fill="#95C24D"/>
<path d="M246.832 77.135L251.039 69.4215L249.637 75.0313H252.442L246.131 88.3547L249.637 77.135H246.832Z" fill="#95C24D"/>
<path d="M208.966 77.135L213.173 69.4215L211.771 75.0313H214.576L208.265 88.3547L211.771 77.135H208.966Z" fill="#95C24D"/>
<path d="M284.698 77.135L288.906 69.4215L287.503 75.0313H290.308L283.997 88.3547L287.503 77.135H284.698Z" fill="#95C24D"/>
<path d="M303.632 77.135L307.839 69.4215L306.437 75.0313H309.242L302.931 88.3547L306.437 77.135H303.632Z" fill="#95C24D"/>
<path d="M379.364 77.135L383.572 69.4215L382.169 75.0313H384.974L378.663 88.3547L382.169 77.135H379.364Z" fill="#95C24D"/>
<path d="M341.498 77.135L345.705 69.4215L344.303 75.0313H347.108L340.797 88.3547L344.303 77.135H341.498Z" fill="#95C24D"/>
<path d="M417.231 77.135L421.438 69.4215L420.035 75.0313H422.84L416.529 88.3547L420.035 77.135H417.231Z" fill="#95C24D"/>
<path d="M322.565 77.135L326.772 69.4215L325.37 75.0313H328.175L321.864 88.3547L325.37 77.135H322.565Z" fill="#95C24D"/>
<path d="M398.297 77.135L402.505 69.4215L401.102 75.0313H403.907L397.596 88.3547L401.102 77.135H398.297Z" fill="#95C24D"/>
<path d="M360.431 77.135L364.638 69.4215L363.236 75.0313H366.041L359.73 88.3547L363.236 77.135H360.431Z" fill="#95C24D"/>
<path d="M436.164 77.135L440.371 69.4215L438.969 75.0313H441.774L435.462 88.3547L438.969 77.135H436.164Z" fill="#95C24D"/>
<path d="M455.097 77.135L459.304 69.4215L457.902 75.0313H460.707L454.396 88.3547L457.902 77.135H455.097Z" fill="#95C24D"/>
<path d="M530.83 77.135L535.037 69.4215L533.634 75.0313H536.439L530.128 88.3547L533.634 77.135H530.83Z" fill="#95C24D"/>
<path d="M492.963 77.135L497.171 69.4215L495.768 75.0313H498.573L492.262 88.3547L495.768 77.135H492.963Z" fill="#95C24D"/>
<path d="M568.696 77.135L572.903 69.4215L571.501 75.0313H574.306L567.995 88.3547L571.501 77.135H568.696Z" fill="#95C24D"/>
<path d="M474.03 77.135L478.238 69.4215L476.835 75.0313H479.64L473.329 88.3547L476.835 77.135H474.03Z" fill="#95C24D"/>
<path d="M549.763 77.135L553.97 69.4215L552.568 75.0313H555.373L549.062 88.3547L552.568 77.135H549.763Z" fill="#95C24D"/>
<path d="M511.896 77.135L516.104 69.4215L514.701 75.0313H517.506L511.195 88.3547L514.701 77.135H511.896Z" fill="#95C24D"/>
<path d="M587.629 77.135L591.836 69.4215L590.434 75.0313H593.239L586.928 88.3547L590.434 77.135H587.629Z" fill="#95C24D"/>
<path d="M606.562 77.135L610.769 69.4215L609.367 75.0313H612.172L605.861 88.3547L609.367 77.135H606.562Z" fill="#95C24D"/>
<path d="M682.295 77.135L686.502 69.4215L685.1 75.0313H687.904L681.593 88.3547L685.1 77.135H682.295Z" fill="#95C24D"/>
<path d="M644.428 77.135L648.636 69.4215L647.233 75.0313H650.038L643.727 88.3547L647.233 77.135H644.428Z" fill="#95C24D"/>
<path d="M720.161 77.135L724.368 69.4215L722.966 75.0313H725.771L719.46 88.3547L722.966 77.135H720.161Z" fill="#95C24D"/>
<path d="M625.495 77.135L629.703 69.4215L628.3 75.0313H631.105L624.794 88.3547L628.3 77.135H625.495Z" fill="#95C24D"/>
<path d="M701.228 77.135L705.435 69.4215L704.033 75.0313H706.838L700.527 88.3547L704.033 77.135H701.228Z" fill="#95C24D"/>
<path d="M663.362 77.135L667.569 69.4215L666.166 75.0313H668.971L662.66 88.3547L666.166 77.135H663.362Z" fill="#95C24D"/>
</svg>
