<svg width="14" height="29" viewBox="0 0 14 29" fill="none" xmlns="http://www.w3.org/2000/svg">
<path d="M0.000143783 7.22104V26.1957C0.00239732 26.9372 0.276208 27.6479 0.762252 28.173C1.24829 28.6982 1.90724 28.9953 2.59555 29H11.4046C12.0929 28.9953 12.7518 28.6982 13.2379 28.173C13.7239 27.6479 13.9977 26.9373 14 26.1957V7.22104C13.9977 6.47823 13.7228 5.76659 13.2349 5.24165C12.747 4.7167 12.0861 4.42116 11.3966 4.41956H3.91731V0.870039C3.91731 0.639232 3.83224 0.417928 3.68088 0.254882C3.52932 0.0916392 3.32387 0 3.10958 0C2.89549 0 2.69004 0.091634 2.53848 0.254882C2.38712 0.417923 2.30204 0.639227 2.30204 0.870039V4.43696C1.66917 4.51908 1.08605 4.84719 0.662013 5.35977C0.238152 5.87256 0.00283651 6.53447 0 7.22098L0.000143783 7.22104ZM9.56303 26.6799C9.56453 26.3876 9.78426 26.1509 10.0556 26.1493H11.5526C11.823 26.1523 12.0412 26.3886 12.0425 26.6799V26.9495C12.0425 27.2416 11.8235 27.4787 11.5526 27.4803H10.0556C9.78349 27.4803 9.56303 27.2426 9.56303 26.9495V26.6799ZM9.56303 24.1395C9.56453 23.847 9.78426 23.6103 10.0556 23.6087H11.5526C11.823 23.612 12.0412 23.8482 12.0425 24.1395V24.4092C12.0425 24.7011 11.8235 24.9384 11.5526 24.94H10.0556C9.78349 24.94 9.56303 24.7023 9.56303 24.4092V24.1395ZM9.56303 21.5992C9.56453 21.3067 9.78426 21.07 10.0556 21.0684H11.5526C11.823 21.0717 12.0412 21.3077 12.0425 21.5992V21.8689C12.0425 22.1608 11.8235 22.3978 11.5526 22.3995H10.0556C9.78349 22.3995 9.56303 22.162 9.56303 21.8689V21.5992ZM9.56303 19.0589V19.0587C9.56453 18.7668 9.78463 18.5309 10.0556 18.5309H11.5526C11.8226 18.5326 12.041 18.7678 12.0425 19.0587V19.3314C12.041 19.6223 11.8226 19.8575 11.5526 19.8591H10.0556C9.78463 19.8591 9.56452 19.6232 9.56303 19.3314V19.0589ZM5.75879 26.6796C5.76029 26.3873 5.98002 26.1506 6.25157 26.149H7.74853H7.74834C8.01989 26.1506 8.23963 26.3873 8.24112 26.6796V26.9493C8.24112 27.2424 8.02046 27.4801 7.74834 27.4801H6.25157C5.97945 27.4801 5.75879 27.2424 5.75879 26.9493L5.75879 26.6796ZM5.75879 24.1393C5.76029 23.8468 5.98002 23.6101 6.25157 23.6085H7.74853H7.74834C8.01989 23.6101 8.23963 23.8468 8.24112 24.1393V24.4089C8.24112 24.702 8.02046 24.9397 7.74834 24.9397H6.25157C5.97945 24.9397 5.75879 24.702 5.75879 24.4089L5.75879 24.1393ZM5.75879 21.599C5.76029 21.3064 5.98002 21.0698 6.25157 21.0682H7.74853H7.74834C8.01989 21.0698 8.23963 21.3064 8.24112 21.599V21.8686C8.24112 22.1617 8.02046 22.3992 7.74834 22.3992H6.25157C5.97945 22.3992 5.75879 22.1617 5.75879 21.8686L5.75879 21.599ZM5.75879 19.0586V19.0584C5.76029 18.7665 5.98039 18.5307 6.25157 18.5307H7.74853H7.74834C8.01952 18.5307 8.23963 18.7666 8.24112 19.0584V19.3311C8.23962 19.623 8.01952 19.8589 7.74834 19.8589H6.25157C5.98039 19.8589 5.76028 19.623 5.75879 19.3311L5.75879 19.0586ZM1.95738 26.6793C1.9587 26.3881 2.17692 26.1518 2.44733 26.1488H3.94429C4.21565 26.1504 4.43539 26.3871 4.43688 26.6793V26.949C4.43688 27.2421 4.2164 27.4798 3.94429 27.4798H2.44733C2.17634 27.4782 1.95738 27.2411 1.95738 26.949V26.6793ZM1.95738 24.139C1.9587 23.8477 2.17692 23.6114 2.44733 23.6082H3.94429C4.21565 23.6098 4.43539 23.8465 4.43688 24.139V24.4087C4.43688 24.7018 4.2164 24.9395 3.94429 24.9395H2.44733C2.17634 24.9378 1.95738 24.7006 1.95738 24.4087V24.139ZM1.95738 21.5987C1.9587 21.3072 2.17692 21.0711 2.44733 21.0679H3.94429C4.21565 21.0695 4.43539 21.3062 4.43688 21.5987V21.8683C4.43688 22.1615 4.2164 22.3989 3.94429 22.3989H2.44733C2.17634 22.3973 1.95738 22.1602 1.95738 21.8683V21.5987ZM1.95738 19.0584V19.0582C1.95889 18.7673 2.17729 18.532 2.44733 18.5304H3.94429C4.21528 18.5304 4.43539 18.7663 4.43688 19.0582V19.3308C4.43537 19.6227 4.21527 19.8586 3.94429 19.8586H2.44733C2.17728 19.857 1.95887 19.6217 1.95738 19.3308V19.0584ZM1.95738 7.42636V7.42616C1.95738 7.06266 2.23101 6.76792 2.56848 6.76792H11.4314C11.7688 6.76792 12.0425 7.06265 12.0425 7.42616V16.0479C12.0425 16.412 11.7694 16.7075 11.4314 16.7092H2.56848C2.23045 16.7076 1.95738 16.412 1.95738 16.0479V7.42636Z" fill="#95C24D"/>
</svg>
