<svg width="32" height="32" viewBox="0 0 32 32" fill="none" xmlns="http://www.w3.org/2000/svg">
<path d="M-3.43079e-05 31.7214L0.752903 26.2079C2.71055 26.359 4.14114 25.9562 5.04467 24.9995C5.9482 24.0428 6.50036 22.7589 6.70114 21.1476C6.90193 19.5364 6.95212 17.7992 6.85173 15.9362L-3.29279e-05 15.9362L-3.15347e-05 -2.79753e-06L12.8753 -1.67194e-06L12.8753 18.9573C12.8753 23.5897 11.7207 27.0639 9.41173 29.3801C7.05251 31.6962 3.91526 32.4767 -3.43079e-05 31.7214ZM19.1247 31.7214L19.8776 26.2079C21.8353 26.359 23.2659 25.9562 24.1694 24.9995C25.0729 24.0428 25.6251 22.7589 25.8259 21.1476C26.0266 19.5364 26.0768 17.7992 25.9764 15.9362L19.1247 15.9362L19.1247 -1.12559e-06L32 0L32 18.9573C32 23.5897 30.8455 27.0639 28.5364 29.3801C26.1772 31.6962 23.04 32.4767 19.1247 31.7214Z" fill="#95C24D"/>
</svg>
